<?xml version="1.0" standalone="no"?>
<!DOCTYPE svg PUBLIC "-//W3C//DTD SVG 20010904//EN"
 "http://www.w3.org/TR/2001/REC-SVG-20010904/DTD/svg10.dtd">
<svg version="1.0" xmlns="http://www.w3.org/2000/svg"
 width="260.000000pt" height="260.000000pt" viewBox="0 0 260.000000 260.000000"
 preserveAspectRatio="xMidYMid meet">
<metadata>
Created by potrace 1.11, written by Peter Selinger 2001-2013
</metadata>
<g transform="translate(0.000000,260.000000) scale(0.100000,-0.100000)"
fill="#000000" stroke="none">
<path d="M364 2520 c-102 -20 -210 -103 -258 -198 -46 -90 -47 -121 -44 -1082
l3 -905 23 -57 c31 -76 109 -161 186 -201 l61 -32 970 0 970 0 66 32 c79 39
140 102 177 181 l27 57 0 970 0 970 -27 55 c-31 64 -94 131 -157 168 -89 52
-87 52 -1056 51 -495 -1 -919 -5 -941 -9z m1514 -1197 l-3 -828 -82 -3 -83 -3
-1 208 -1 208 -17 -55 c-56 -177 -185 -309 -350 -361 -89 -28 -222 -28 -311 0
-309 97 -453 449 -304 743 42 83 136 173 228 218 300 147 634 -3 737 -329 17
-55 17 -45 18 487 l1 542 85 0 85 0 -2 -827z"/>
<path d="M1100 1325 c-216 -61 -324 -289 -230 -487 35 -75 84 -124 164 -163
63 -32 81 -36 147 -36 84 0 139 17 204 61 131 90 183 263 125 415 -61 158
-250 254 -410 210z"/>
</g>
</svg>
